<?xml version="1.0" encoding="utf-8"?><!-- Uploaded to: SVG Repo, www.svgrepo.com, Generator: SVG Repo Mixer Tools -->
<svg width="800px" height="800px" viewBox="0 0 48 48" xmlns="http://www.w3.org/2000/svg"><title>70 Basic icons by Xicons.co</title><path d="M3,20H45a0,0,0,0,1,0,0V40a4,4,0,0,1-4,4H7a4,4,0,0,1-4-4V20A0,0,0,0,1,3,20Z" fill="#f0f0f1"/><path d="M41,6H7a4,4,0,0,0-4,4V20H45V10A4,4,0,0,0,41,6Z" fill="#ec5044"/><path d="M14,13a2,2,0,0,1-2-2V3a2,2,0,0,1,4,0v8A2,2,0,0,1,14,13Z" fill="#495660"/><path d="M34,13a2,2,0,0,1-2-2V3a2,2,0,0,1,4,0v8A2,2,0,0,1,34,13Z" fill="#495660"/><path d="M21.39,38.5A2,2,0,0,1,20,37.9l-5.39-5.53a2,2,0,0,1,2.87-2.79l4,4.12L30.63,25A2,2,0,0,1,33.37,28L22.76,38A2,2,0,0,1,21.39,38.5Z" fill="#495660"/></svg>