<?xml version="1.0" encoding="iso-8859-1"?>
<!-- Uploaded to: SVG Repo, www.svgrepo.com, Generator: SVG Repo Mixer Tools -->
<!DOCTYPE svg PUBLIC "-//W3C//DTD SVG 1.1//EN" "http://www.w3.org/Graphics/SVG/1.1/DTD/svg11.dtd">
<svg fill="#000000" version="1.1" id="Capa_1" xmlns="http://www.w3.org/2000/svg" xmlns:xlink="http://www.w3.org/1999/xlink" 
	 width="800px" height="800px" viewBox="0 0 946.218 946.218"
	 xml:space="preserve">
<g>
	<g>
		<path d="M274.698,105.387H105.947v168.751h168.751V105.387z M209.698,209.138h-38.751v-38.751h38.751V209.138L209.698,209.138z"/>
		<path d="M656.13,274.138h168.75V105.387H656.13V274.138z M721.13,170.387h38.75v38.751h-38.75V170.387z"/>
		<path d="M274.698,664.105H105.947v168.751h168.751V664.105z M209.698,767.856h-38.751v-38.751h38.751V767.856L209.698,767.856z"/>
		<polygon points="242.199,513.69 242.199,447.024 175.532,447.024 175.532,380.357 108.865,380.357 108.865,447.024 
			108.865,513.69 175.532,513.69 		"/>
		<rect x="442.708" y="313.69" width="66.667" height="66.667"/>
		<path d="M688.63,914.708v-50.324c31.869-7.396,61.762-21.389,88.031-41.292l123.012,123.126l45.982-45.939L822.644,777.152
			c14.504-19.106,25.893-40.127,33.871-62.443h74.586v-66.667v-66.667v-66.666h-66.668v66.666v1.9
			c-5.445-24.214-14.686-47.312-27.432-68.566h27.432v-66.667h-49.258v-68.518h49.258v68.518h66.668v-75h-0.834V0H550.744v116.297
			h-40.066h-1.303h-64.061V49.63h-65.229V0H0.562v379.523h379.523V182.963h63.926v65.363h65.364v65.363h41.369v65.833h91.963v20.783
			c-2.521-0.08-5.045-0.136-7.58-0.137h-0.109c-52.064,0-101.541,16.823-142.246,47.872h-50.064v-1.018v-66.667H376.04v66.667
			h-66.667v66.666h66.667h57.625c-22.015,36.291-33.792,78.007-33.812,121.536c0,0.037,0.001,0.073,0.001,0.109h-19.77v-80.561
			h-71.22v-40.067h-66.667v40.067H108.865v-41.085H49.843v41.085H0.562v379.522h379.523v-19.59h62.623V848.04h66.667l0,0v66.667
			h66.668v-51.635c14.906,3.833,30.27,6.212,45.922,7.062v44.572L688.63,914.708L688.63,914.708z M315.085,314.523H65.562V65
			h249.523V314.523z M797.767,465.592c-6.168-5.92-12.605-11.463-19.281-16.624h19.281V465.592z M755.4,515.066
			c7.736,7.742,14.625,16.104,20.641,24.966c8.715,12.836,15.58,26.726,20.449,41.343c5.727,17.195,8.705,35.388,8.695,54.04
			c-0.002,4.247-0.164,8.457-0.475,12.627c-1.775,23.929-8.529,46.492-19.215,66.667c-2.881,5.439-6.037,10.709-9.471,15.78
			c-0.355,0.524-0.723,1.042-1.086,1.562c-12.082,17.424-27.32,32.501-44.896,44.378c-25.164,17.005-55.1,27.45-87.334,28.892
			c-2.549,0.113-5.111,0.182-7.688,0.182v32.499l-0.08-32.499c-49.682-0.022-94.443-21.449-125.566-55.531
			c-24.961-27.336-41.146-62.813-44.047-101.93c-0.313-4.221-0.476-8.484-0.474-12.784c0.021-47.064,19.261-89.724,50.283-120.549
			c17.125-17.017,37.844-30.425,60.904-38.977c18.406-6.825,38.303-10.562,59.059-10.562
			C680.552,465.191,723.275,482.911,755.4,515.066z M510.677,247.024v-64.061h40.068v64.061H510.677z M615.744,314.523V65h249.521
			v249.523H615.744z M709.375,379.523h39.135v49.739c-12.506-6.911-25.594-12.654-39.135-17.15V379.523z M315.085,869.299H65.562
			V619.775h249.523V869.299z M380.085,781.374v-79.373h29.316c8.45,28.742,22.385,55.625,41.273,79.373H380.085z"/>
		<path d="M635.019,514.708v39.638c24.154,0,45.859,10.643,60.709,27.469c12.607,14.282,20.281,33.019,20.281,53.521h65
			c0-80.499-65.49-145.99-145.99-145.99V514.708z"/>
	</g>
</g>
</svg>