<?xml version="1.0" encoding="iso-8859-1"?>
<!-- Uploaded to: SVG Repo, www.svgrepo.com, Generator: SVG Repo Mixer Tools -->
<svg height="800px" width="800px" version="1.1" id="Layer_1" xmlns="http://www.w3.org/2000/svg" xmlns:xlink="http://www.w3.org/1999/xlink" 
	 viewBox="0 0 512 512" xml:space="preserve">
<path style="fill:#2D64BC;" d="M256,0l-31.347,111.804L256,224.865c17.196,0,31.135,13.94,31.135,31.135
	S273.196,287.135,256,287.135l-31.347,117.241L256,512c141.385,0,256-114.615,256-256S397.385,0,256,0z"/>
<path style="fill:#6499F3;" d="M442.429,256c0,49.711-19.416,96.504-54.67,131.758c-35.255,35.255-82.047,54.67-131.758,54.671
	V287.135c-17.196,0-31.135-13.94-31.135-31.135s13.94-31.135,31.135-31.135V0C114.615,0,0,114.615,0,256s114.615,256,256,256
	v-38.224c58.084,0,112.749-22.676,153.924-63.852s63.852-95.84,63.852-153.925h-31.347V256z"/>
<g>
	<path style="fill:#9BD6FF;" d="M380.264,32.15L32.15,380.264c23.236,41.768,57.817,76.349,99.585,99.585l348.115-348.115
		C456.613,89.967,422.033,55.387,380.264,32.15z M287.135,256c0,17.195-13.94,31.135-31.135,31.135s-31.135-13.94-31.135-31.135
		s13.94-31.135,31.135-31.135S287.135,238.805,287.135,256z"/>
	<path style="fill:#9BD6FF;" d="M69.571,256H38.224c0-58.084,22.676-112.749,63.852-153.925
		C143.251,60.901,197.916,38.224,256,38.224v31.347c-49.711,0-96.504,19.416-131.758,54.671
		C88.987,159.496,69.571,206.289,69.571,256z"/>
</g>
<path style="fill:#C4EAFF;" d="M224.865,256c0-17.195,13.94-31.135,31.135-31.135c8.597,0,16.382,3.485,22.016,9.119L437.007,74.993
	c-16.771-16.771-35.858-31.225-56.742-42.843L32.15,380.264c11.618,20.884,26.072,39.972,42.843,56.742l158.991-158.991
	C228.35,272.382,224.865,264.597,224.865,256z"/>
<path style="fill:#FF8E00;" d="M324.017,187.983l-34.928,11.244l-11.073,34.756c-2.113-2.113-4.528-3.924-7.175-5.361
	c9.705,5.273,16.294,15.555,16.294,27.377c0,17.196-13.94,31.135-31.135,31.135c-11.822,0-22.105-6.589-27.377-16.294
	c1.438,2.647,3.249,5.061,5.361,7.175l-34.061,8.286l-11.94,37.715C205.39,341.424,229.438,352.19,256,352.19
	c53.125,0,96.19-43.065,96.19-96.19C352.19,229.438,341.424,205.39,324.017,187.983z"/>
<path style="fill:#FFBA00;" d="M224.865,256c0-17.195,13.94-31.135,31.135-31.135c8.597,0,16.382,3.485,22.016,9.119l46.001-46.001
	C306.61,170.576,282.562,159.81,256,159.81c-53.125,0-96.19,43.065-96.19,96.19c0,26.562,10.767,50.61,28.174,68.017l46.001-46.001
	C228.35,272.382,224.865,264.597,224.865,256z"/>
</svg>