<?xml version="1.0" encoding="iso-8859-1"?>
<!-- Uploaded to: SVG Repo, www.svgrepo.com, Generator: SVG Repo Mixer Tools -->
<svg height="800px" width="800px" version="1.1" id="Layer_1" xmlns="http://www.w3.org/2000/svg" xmlns:xlink="http://www.w3.org/1999/xlink" 
	 viewBox="0 0 512.001 512.001" xml:space="preserve">
<g>
	<polygon style="fill:#FCD051;" points="252.843,125.406 386.594,259.16 501.333,144.421 434.453,77.547 367.58,10.667 	"/>
	<circle style="fill:#657694;" cx="111.87" cy="400.136" r="21.333"/>
	<path style="fill:#ABB8B9;" d="M126.954,385.046c8.331,8.331,8.331,21.838,0,30.169c-8.332,8.331-21.842,8.333-30.17,0
		c-8.333-8.329-8.331-21.838,0-30.169C105.115,376.713,118.622,376.715,126.954,385.046L126.954,385.046z M386.594,259.16
		L252.843,125.406c-13.123-13.121-34.595-13.123-47.715,0.002L48.096,282.438C-1.808,332.341-1.808,414,48.099,463.904
		c49.903,49.904,131.562,49.904,181.463,0l157.03-157.03C399.718,293.751,399.716,272.28,386.594,259.16z"/>
</g>
<g>
	<path style="fill:#000003;" d="M508.876,136.878L375.122,3.124c-4.167-4.166-10.919-4.166-15.087,0L251.924,111.236
		c-6.841-4.129-14.714-6.336-22.939-6.336c-11.889,0-23.042,4.605-31.403,12.967L40.553,274.896C14.402,301.046,0,335.947,0,373.171
		c0,37.223,14.402,72.125,40.554,98.277c26.152,26.15,61.052,40.552,98.276,40.552s72.125-14.402,98.274-40.552l157.03-157.03
		c14.716-14.713,16.918-37.266,6.626-54.337l108.117-108.118C513.042,147.798,513.042,141.044,508.876,136.878z M379.05,299.331
		l-157.031,157.03c-22.119,22.121-51.664,34.303-83.188,34.303s-61.068-12.182-83.191-34.305
		c-22.121-22.12-34.304-51.664-34.304-83.188c0-31.526,12.183-61.069,34.303-83.189l157.031-157.031
		c4.331-4.332,10.124-6.717,16.315-6.717c6.188,0,11.983,2.385,16.315,6.716l133.752,133.754c0.002,0.003,0.006,0.005,0.011,0.01
		C388.045,275.71,388.041,290.34,379.05,299.331z M386.596,244.073L267.927,125.404l99.653-99.651l51.792,51.79l-60.911,60.91
		c-4.165,4.166-4.165,10.919,0,15.086c2.083,2.083,4.813,3.124,7.544,3.124c2.73,0,5.459-1.041,7.542-3.124l60.909-60.909
		l51.792,51.79L386.596,244.073z"/>
	<path style="fill:#000003;" d="M247.389,310.382c-5.637,5.637-7.466,13.623-5.525,20.804l-14.184,14.182
		c-0.003,0.003-0.005,0.006-0.009,0.011c-14.231,14.219-35.995,16.412-52.552,6.587l76.825-76.827l3.477,3.475
		c2.028,2.027,4.751,3.124,7.543,3.124c0.921,0,1.848-0.118,2.761-0.364c3.681-0.986,6.556-3.862,7.544-7.542l8.065-30.104
		c0.988-3.681-0.067-7.609-2.761-10.304c-2.696-2.695-6.623-3.746-10.305-2.761l-30.101,8.067c-3.681,0.987-6.557,3.862-7.544,7.544
		c-0.986,3.681,0.067,7.609,2.763,10.305l3.473,3.473l-76.833,76.835c-3.935-6.601-6.038-14.162-6.038-22.046
		c0-9.369,2.964-18.283,8.451-25.669c7.043,1.712,14.778-0.156,20.276-5.655c8.386-8.386,8.386-21.983,0-30.369
		c-8.385-8.385-21.982-8.385-30.369,0c-5.748,5.748-7.553,13.943-5.42,21.231c-9.241,11.429-14.272,25.557-14.272,40.461
		c0,13.618,4.207,26.582,11.981,37.438l-18.964,18.962c-4.254-2.036-8.945-3.114-13.8-3.114c-8.548,0-16.584,3.328-22.628,9.372
		c-6.044,6.044-9.372,14.08-9.372,22.629s3.329,16.585,9.37,22.625c6.044,6.046,14.08,9.377,22.629,9.377s16.586-3.33,22.629-9.375
		c6.044-6.044,9.373-14.08,9.373-22.628c0-4.856-1.077-9.545-3.115-13.799l18.968-18.969c11.157,7.96,24.29,11.955,37.433,11.954
		c16.516-0.001,33.038-6.288,45.613-18.861c0.009-0.009,0.016-0.018,0.023-0.027l14.157-14.157
		c7.181,1.943,15.169,0.113,20.807-5.525c8.384-8.385,8.384-21.98,0-30.366C269.37,301.996,255.774,301.996,247.389,310.382z
		 M119.409,407.673c-2.015,2.015-4.693,3.126-7.542,3.126c-2.848,0-5.526-1.109-7.541-3.128c-2.014-2.013-3.123-4.69-3.123-7.539
		c0-2.849,1.109-5.528,3.124-7.542c2.015-2.015,4.692-3.124,7.541-3.124s5.528,1.109,7.542,3.124
		c2.014,2.014,3.124,4.693,3.124,7.541C122.535,402.979,121.424,405.658,119.409,407.673z"/>
	<path style="fill:#000003;" d="M337.582,159.339l-0.179,0.178c-4.194,4.138-4.238,10.893-0.1,15.086
		c2.088,2.114,4.84,3.175,7.592,3.175c2.706,0,5.415-1.024,7.494-3.075l0.179-0.178c4.194-4.139,4.238-10.893,0.1-15.086
		C348.528,155.246,341.775,155.201,337.582,159.339z"/>
	<path style="fill:#000003;" d="M364.352,95.858c4.165-4.166,4.165-10.92,0-15.087c-4.167-4.166-10.921-4.166-15.087,0
		l-26.321,26.322c-4.167,4.166-4.167,10.92,0,15.086c2.083,2.083,4.813,3.124,7.542,3.124c2.73,0,5.461-1.042,7.544-3.124
		L364.352,95.858z"/>
	<path style="fill:#000003;" d="M431.228,147.648c-4.165-4.166-10.919-4.166-15.087,0L389.82,173.97
		c-4.165,4.166-4.165,10.919,0,15.086c2.083,2.083,4.813,3.124,7.544,3.124c2.73,0,5.459-1.041,7.542-3.124l26.321-26.321
		C435.395,158.569,435.395,151.815,431.228,147.648z"/>
</g>
</svg>