<?xml version="1.0" encoding="iso-8859-1"?>
<!-- Uploaded to: SVG Repo, www.svgrepo.com, Generator: SVG Repo Mixer Tools -->
<svg height="800px" width="800px" version="1.1" id="Capa_1" xmlns="http://www.w3.org/2000/svg" xmlns:xlink="http://www.w3.org/1999/xlink" 
	 viewBox="0 0 465 465" xml:space="preserve">
<g>
	<path style="fill:#0C80E4;" d="M286.297,81.446c-33.374-14.856-69.79-23.271-108.237-25.01
		c-38.444-1.738-75.473,3.353-110.052,15.134C49.976,77.714,31.307,86.538,15,96.593v31.042
		c13.957-8.729,28.989-16.269,44.854-22.487c35.764-14.019,74.364-21.127,114.73-21.127s78.967,7.108,114.73,21.127
		c2.426,0.951,5.228,2.054,8.348,3.283c34.104,13.429,119.94,47.228,152.338,52.827v-15.015
		c-20.933-3.991-63.987-20.57-133.692-51.424c-3.787-1.677-5.499-6.106-3.822-9.894c0.003-0.006,0.006-0.011,0.008-0.017
		l-16.297-7.262C294.511,81.429,290.079,83.128,286.297,81.446z"/>
	<path style="fill:#FECC33;" d="M83.767,287.791v51.563c0,12.604-8.007,23.375-19.2,27.491l15.221,41.597
		c13.179-2.398,23.202-13.961,23.202-27.822l0.001-107.856c-9.175-2.465-18.102-5.402-26.723-8.775v16.303
		C80.409,280.291,83.767,283.649,83.767,287.791z"/>
	<path style="fill:#00E4C5;" d="M174.584,153.929c-31.206,0-56.595,25.388-56.595,56.594s25.389,56.594,56.595,56.594
		s56.594-25.388,56.594-56.594S205.79,153.929,174.584,153.929z M174.584,243.023c-17.921,0-32.5-14.58-32.5-32.5
		s14.579-32.5,32.5-32.5s32.5,14.58,32.5,32.5S192.505,243.023,174.584,243.023z"/>
	<path style="fill:#FECC33;" d="M334.5,329.933c-8.723,0-15.818,7.096-15.818,15.818s7.096,15.818,15.818,15.818
		s15.818-7.096,15.818-15.818S343.223,329.933,334.5,329.933z"/>
	<path d="M457.839,132.185c-10.189-0.461-41.962-9.698-135.46-51.083c-3.777-1.672-8.202,0.03-9.885,3.806
		c-0.003,0.006-0.006,0.011-0.008,0.017c-1.677,3.788,0.035,8.217,3.822,9.894c69.705,30.854,112.76,47.433,133.692,51.424v15.015
		c-32.397-5.599-118.233-39.397-152.338-52.827c-3.12-1.229-5.922-2.332-8.348-3.283c-35.764-14.019-74.364-21.127-114.73-21.127
		s-78.967,7.108-114.73,21.127C43.989,111.367,28.957,118.906,15,127.635V96.593C31.307,86.538,49.976,77.714,68.008,71.57
		c34.579-11.782,71.607-16.872,110.052-15.134c38.447,1.739,74.863,10.154,108.237,25.01c3.782,1.682,8.215-0.017,9.9-3.8
		c0-0.001,0.001-0.002,0.001-0.003c1.685-3.784-0.018-8.217-3.802-9.902c-35.093-15.621-73.333-24.466-113.659-26.29
		c-40.322-1.826-79.208,3.532-115.567,15.92C46.951,62.898,30.246,70.479,15,79.165V62.447c0-4.142-3.357-7.5-7.5-7.5
		S0,58.305,0,62.447v79.18c0,2.802,1.563,5.371,4.051,6.66c2.489,1.289,5.489,1.082,7.777-0.534
		c16.175-11.428,34.175-21.063,53.5-28.639c34.012-13.332,70.771-20.092,109.256-20.092s75.244,6.76,109.256,20.093
		c2.42,0.948,5.214,2.049,8.326,3.274c68.643,27.03,141.966,54.661,165.334,54.661c4.143,0,7.5-3.358,7.5-7.5v-29.872
		C465,135.667,461.845,132.366,457.839,132.185z"/>
	<path d="M457.5,203.023c-36.429,0-75.155-13.487-116.154-27.767c-48.893-17.028-104.308-36.328-166.762-36.328
		c-68.402,0-132.893,24.831-172.512,66.421c-2.759,2.896-2.759,7.449,0,10.346c19.524,20.496,45.097,36.906,74.195,48.292
		c8.621,3.373,17.548,6.31,26.723,8.775l-0.001,107.856c0,13.86-10.023,25.424-23.202,27.822l-15.221-41.597
		c11.193-4.116,19.2-14.886,19.2-27.491v-51.563c0-4.142-3.357-7.5-7.5-7.5h0c-4.143,0-7.5,3.358-7.5,7.5v51.563
		c0,7.873-6.405,14.278-14.277,14.278c-2.449,0-4.744,1.196-6.147,3.204c-1.403,2.007-1.737,4.574-0.896,6.874l20.223,55.266
		c1.082,2.957,3.895,4.923,7.043,4.923c23.863,0,43.277-19.415,43.277-43.278l0.001-103.044
		c57.607,21.005,98.832,55.875,132.296,84.198c31.792,26.907,56.903,48.16,84.214,48.16c26.191,0,47.5-21.309,47.5-47.5
		c0-25.66-20.456-46.62-45.916-47.46c-0.525-0.027-1.053-0.04-1.584-0.04c-16.993,0-30.818,13.825-30.818,30.818
		s13.825,30.818,30.818,30.818c15.238,0,27.92-11.119,30.38-25.667c1.366,3.586,2.12,7.471,2.12,11.531
		c0,17.92-14.579,32.5-32.5,32.5c-21.814,0-45.075-19.686-74.523-44.609c-25.91-21.929-56.345-47.677-95.453-68.403
		c3.344,0.119,6.696,0.197,10.061,0.197c68.401,0,132.892-24.831,172.511-66.421c2.856-2.999,2.741-7.746-0.258-10.604
		c-2.999-2.856-7.746-2.741-10.604,0.258c-27.254,28.61-67.42,48.678-112.537,57.193c13.827-13.061,22.482-31.544,22.482-52.02
		c0-20.881-8.989-39.698-23.296-52.797c40.335,6.208,77.377,19.105,113.531,31.696c42.231,14.708,82.121,28.601,121.088,28.601
		c4.143,0,7.5-3.358,7.5-7.5S461.643,203.023,457.5,203.023z M334.5,361.569c-8.723,0-15.818-7.096-15.818-15.818
		s7.096-15.818,15.818-15.818s15.818,7.096,15.818,15.818S343.223,361.569,334.5,361.569z M18.098,210.523
		c27.041-25.861,65.028-44.032,107.377-52.024c-13.829,13.062-22.485,31.545-22.485,52.024s8.656,38.962,22.485,52.024
		C83.125,254.555,45.139,236.384,18.098,210.523z M231.178,210.523c0,31.206-25.388,56.594-56.594,56.594
		s-56.595-25.388-56.595-56.594s25.389-56.594,56.595-56.594S231.178,179.317,231.178,210.523z"/>
	<path d="M174.584,178.023c-17.921,0-32.5,14.58-32.5,32.5s14.579,32.5,32.5,32.5s32.5-14.58,32.5-32.5
		S192.505,178.023,174.584,178.023z"/>
</g>
</svg>