<?xml version="1.0" encoding="iso-8859-1"?>
<!-- Uploaded to: SVG Repo, www.svgrepo.com, Generator: SVG Repo Mixer Tools -->
<svg height="800px" width="800px" version="1.1" id="Layer_1" xmlns="http://www.w3.org/2000/svg" xmlns:xlink="http://www.w3.org/1999/xlink" 
	 viewBox="0 0 512 512" xml:space="preserve">
<path style="fill:#F6BB42;" d="M255.995,0c-5.875,0-10.664,4.773-10.664,10.664v490.68c0,5.875,4.789,10.656,10.664,10.656
	c5.906,0,10.656-4.781,10.656-10.656V10.664C266.651,4.773,261.901,0,255.995,0z"/>
<g>
	<path style="fill:#FFCE54;" d="M330.651,426.656h-149.32c-5.891,0-10.672,4.781-10.672,10.688c0,5.875,4.781,10.656,10.672,10.656
		h149.32c5.906,0,10.688-4.781,10.688-10.656C341.339,431.438,336.558,426.656,330.651,426.656z"/>
	<path style="fill:#FFCE54;" d="M405.339,149.336H281.558l87.656-87.641c3.906-4.18,3.812-10.75-0.249-14.828
		c-4.095-4.086-10.657-4.156-14.813-0.242l-98.343,98.289l-98.305-98.289c-4.187-3.914-10.734-3.844-14.812,0.242
		c-4.094,4.078-4.156,10.633-0.25,14.812l87.625,87.656l-123.75,0.015c-5.734,0.188-10.313,4.875-10.313,10.649
		s4.579,10.477,10.313,10.664h123.75l-87.375,87.398c-4.172,4.156-4.172,10.907,0,15.062c4.156,4.188,10.906,4.188,15.078,0
		l98.04-98.039l98.062,98.039c4.156,4.188,10.938,4.188,15.095,0c4.155-4.155,4.155-10.906,0-15.062l-87.407-87.398h123.779
		c5.875,0,10.656-4.773,10.656-10.664S411.214,149.336,405.339,149.336z"/>
</g>
</svg>