<?xml version="1.0" encoding="utf-8"?>
<!-- Uploaded to: SVG Repo, www.svgrepo.com, Generator: SVG Repo Mixer Tools -->
<svg fill="#000000" width="800px" height="800px" viewBox="0 0 32 32" version="1.1" xmlns="http://www.w3.org/2000/svg">
<title>link</title>
<path d="M11.939 22.488c-0.899 0.902-2.143 1.46-3.517 1.46-2.743 0-4.967-2.224-4.967-4.967 0-1.374 0.558-2.618 1.46-3.517l4.492-4.492c0.899-0.899 2.141-1.455 3.512-1.455 2.743 0 4.967 2.224 4.967 4.967 0 1.372-0.556 2.614-1.455 3.513v0c-0.136 0.136-0.22 0.323-0.22 0.531 0 0.414 0.336 0.75 0.75 0.75 0.207 0 0.395-0.084 0.53-0.22v0c1.169-1.17 1.891-2.786 1.891-4.57 0-3.572-2.896-6.468-6.468-6.468-1.784 0-3.399 0.722-4.569 1.89l-4.492 4.492c-1.169 1.17-1.891 2.786-1.891 4.57 0 3.572 2.896 6.468 6.468 6.468 1.784 0 3.399-0.722 4.569-1.89l-0 0c0.136-0.136 0.22-0.324 0.22-0.531 0-0.415-0.336-0.751-0.751-0.751-0.207 0-0.395 0.084-0.53 0.219v0zM28.146 8.45c-1.186-1.133-2.797-1.831-4.57-1.831s-3.384 0.698-4.573 1.833l0.003-0.002c-0.136 0.136-0.219 0.323-0.219 0.53 0 0.415 0.336 0.751 0.751 0.751 0.208 0 0.395-0.084 0.531-0.22v0c0.91-0.87 2.147-1.406 3.509-1.406s2.598 0.536 3.511 1.408l-0.002-0.002c0.898 0.898 1.453 2.139 1.453 3.509s-0.555 2.611-1.453 3.509l-4.486 4.487c-0.898 0.898-2.139 1.454-3.51 1.454-2.741 0-4.963-2.222-4.963-4.963 0-1.37 0.555-2.61 1.453-3.508l-0 0c0.141-0.136 0.228-0.327 0.228-0.538 0-0.414-0.336-0.75-0.75-0.75-0.211 0-0.402 0.087-0.538 0.228l-0 0c-1.164 1.169-1.884 2.781-1.884 4.561 0 3.569 2.894 6.463 6.463 6.463 1.78 0 3.393-0.72 4.562-1.885l4.488-4.489c1.168-1.17 1.889-2.785 1.889-4.568s-0.723-3.4-1.891-4.57l0 0z"></path>
</svg>