<?xml version="1.0" ?>
<!-- Uploaded to: SVG Repo, www.svgrepo.com, Generator: SVG Repo Mixer Tools -->
<svg width="800px" height="800px" viewBox="0 0 32 32" xmlns="http://www.w3.org/2000/svg">
<defs>
<style>.cls-1{fill:#f2f2f2;}.cls-2{fill:#2e3192;}.cls-3{fill:#3fa9f5;}</style>
</defs>
<title/>
<g data-name="01" id="_01">
<circle class="cls-1" cx="16" cy="16" r="13"/>
<path class="cls-2" d="M16,30A14,14,0,1,1,30,16a1,1,0,0,1-2,0,12,12,0,1,0-.52,3.52,1,1,0,1,1,1.91.58A13.92,13.92,0,0,1,16,30Z"/>
<polygon class="cls-3" points="13 11.5 13 20.5 19 16 13 11.5"/>
<path class="cls-2" d="M13,21.5a.91.91,0,0,1-.45-.11A1,1,0,0,1,12,20.5v-9a1,1,0,0,1,.55-.89,1,1,0,0,1,1,.09l6,4.5a1,1,0,0,1,0,1.6l-6,4.5A1,1,0,0,1,13,21.5Zm1-8v5L17.33,16Z"/>
<path class="cls-2" d="M19,21a1,1,0,0,1-1-1V12a1,1,0,0,1,2,0v8A1,1,0,0,1,19,21Z"/>
</g>
</svg>