<?xml version="1.0" encoding="iso-8859-1"?>
<!-- Uploaded to: SVG Repo, www.svgrepo.com, Generator: SVG Repo Mixer Tools -->
<svg height="800px" width="800px" version="1.1" id="Layer_1" xmlns="http://www.w3.org/2000/svg" xmlns:xlink="http://www.w3.org/1999/xlink" 
	 viewBox="0 0 512.001 512.001" xml:space="preserve">
<path style="fill:#FF4F19;" d="M494.447,199.352c-23.405-23.405-61.352-23.405-84.758,0l-30.27,30.27l-30.272-30.272
	c-23.405-23.405-61.352-23.405-84.758,0c-23.405,23.405-23.405,61.352,0,84.758l115.029,115.029l115.029-115.029
	C517.852,260.705,517.852,222.757,494.447,199.352z"/>
<path style="fill:#88888F;" d="M148.406,25.971v336.621c-15.299-6.573-33.277-10.129-51.942-10.129
	c-23.797,0-46.499,5.758-63.923,16.213C11.861,381.084,0,399.518,0,419.247c0,19.729,11.861,38.163,32.541,50.569
	c17.424,10.455,40.126,16.213,63.923,16.213s46.497-5.758,63.923-16.213c20.68-12.407,32.541-30.84,32.541-50.569V70.493h96.464
	V25.971H148.406z"/>
<path style="fill:#AF2E08;" d="M494.447,199.352c-23.405-23.405-61.352-23.405-84.758,0l-30.27,30.27l0,0v169.517l0,0
	L494.448,284.11C517.852,260.705,517.852,222.757,494.447,199.352z"/>
<path style="fill:#56545A;" d="M148.406,25.971V317.96v44.633v113.308c4.207-1.808,8.223-3.829,11.981-6.085
	c20.68-12.407,32.541-30.84,32.541-50.569V70.493h96.464V25.971H148.406z"/>
</svg>