<?xml version="1.0" encoding="iso-8859-1"?>
<!-- Uploaded to: SVG Repo, www.svgrepo.com, Generator: SVG Repo Mixer Tools -->
<svg fill="#000000" height="800px" width="800px" version="1.1" id="Layer_1" xmlns="http://www.w3.org/2000/svg" xmlns:xlink="http://www.w3.org/1999/xlink" 
	 viewBox="0 0 512 512" xml:space="preserve">
<g>
	<g>
		<path d="M336.938,247.375l-117.333-85.333c-3.25-2.375-8.208-2.708-11.781-0.875c-3.573,1.813-6.49,5.49-6.49,9.5v170.667
			c0,4.01,2.917,7.688,6.49,9.5c1.531,0.781,3.521,1.167,5.177,1.167c2.208,0,4.583-0.687,6.438-2.042l117.417-85.333
			c2.761-2.01,4.438-5.208,4.438-8.625C341.292,252.583,339.698,249.385,336.938,247.375z M222.667,320.385V191.614L311.198,256
			L222.667,320.385z"/>
	</g>
</g>
<g>
	<g>
		<path d="M256,0C114.844,0,0,114.844,0,256s114.844,256,256,256s256-114.844,256-256S397.156,0,256,0z M256,490.667
			C126.604,490.667,21.333,385.396,21.333,256C21.333,126.604,126.604,21.333,256,21.333S490.667,126.604,490.667,256
			C490.667,385.396,385.396,490.667,256,490.667z"/>
	</g>
</g>
</svg>