<?xml version="1.0" encoding="iso-8859-1"?>
<!-- Uploaded to: SVG Repo, www.svgrepo.com, Generator: SVG Repo Mixer Tools -->
<svg fill="#000000" version="1.1" id="Layer_1" xmlns="http://www.w3.org/2000/svg" xmlns:xlink="http://www.w3.org/1999/xlink" 
	 viewBox="0 0 496 496" xml:space="preserve">
<g>
	<g>
		<g>
			<path d="M486.624,300.168L432,252.368V144C432,64.6,367.4,0,288,0h-88C123.304,0,60.592,60.328,56.408,136H32
				c-17.648,0-32,14.352-32,32s14.352,32,32,32h24v144c0,54.656,42.376,99.592,96,103.696V496h16v-64h-8c-48.52,0-88-39.48-88-88
				V200h32v16h16v-16h21.24c2.56,8,6,15.536,10.288,22.52l-13.352,13.36l33.936,33.936l13.352-13.344
				c9.448,5.848,19.672,10.08,30.528,12.632V288h48v-18.888c10.856-2.552,21.088-6.784,30.528-12.632l13.352,13.344l33.936-33.936
				l-13.344-13.352c5.848-9.456,10.08-19.68,12.632-30.528H360v-48h-18.888c-2.552-10.848-6.784-21.08-12.632-30.528l13.344-13.352
				l-33.936-33.936l-13.352,13.344c-9.456-5.848-19.68-10.08-30.528-12.632V48h-48v18.888c-10.848,2.552-21.08,6.784-30.528,12.632
				l-13.352-13.344l-33.936,33.936l13.352,13.36C147.24,120.464,143.808,128,141.24,136H120v-16h-16v16H72.408
				C76.568,69.152,132.12,16,200,16h88c70.576,0,128,57.424,128,128v115.632l60.088,52.568c2.48,2.184,3.912,5.32,3.912,8.624
				c0,5.256-3.56,9.824-8.664,11.104L416,345.76V400c0,17.648-14.352,32-32,32h-48v64h16v-48h32c26.472,0,48-21.528,48-48v-41.76
				l43.208-10.808C487.456,344.384,496,333.44,496,320.824C496,312.912,492.584,305.384,486.624,300.168z M120,152h33.456l1.552-6
				c2.736-10.632,7.216-20.36,13.312-28.92l3.92-5.512l-11.44-11.456L172.112,88.8l11.456,11.44l5.504-3.92
				c10.848-7.728,23.048-12.776,36.248-14.992L232,80.2V64h16v16.2l6.672,1.128c13.2,2.216,25.4,7.264,36.248,14.992l5.504,3.92
				L307.88,88.8l11.312,11.312l-11.44,11.456l3.92,5.512c7.728,10.848,12.776,23.048,14.992,36.248L327.8,160H344v16h-16.2
				l-1.128,6.672c-2.216,13.2-7.264,25.4-14.992,36.248l-3.92,5.504l11.44,11.456l-11.312,11.312l-11.456-11.456l-5.504,3.928
				c-10.848,7.736-23.048,12.784-36.248,15L248,255.8V272h-16v-16.2l-6.672-1.128c-13.2-2.216-25.4-7.264-36.248-15l-5.504-3.928
				L172.12,247.2l-11.312-11.312l11.44-11.456l-3.92-5.504c-6.096-8.56-10.576-18.288-13.312-28.92l-1.56-6.008H120V152z M104,152
				v32H32c-8.824,0-16-7.176-16-16c0-8.824,7.176-16,16-16H104z"/>
			<path d="M240,232c35.288,0,64-28.712,64-64c0-35.288-28.712-64-64-64c-35.288,0-64,28.712-64,64C176,203.288,204.712,232,240,232
				z M240,120c26.472,0,48,21.528,48,48s-21.528,48-48,48s-48-21.528-48-48S213.528,120,240,120z"/>
			<rect x="232" y="304" width="16" height="16"/>
			<rect x="232" y="336" width="16" height="16"/>
			<rect x="232" y="368" width="16" height="16"/>
			<rect x="232" y="400" width="16" height="16"/>
			<rect x="232" y="432" width="16" height="16"/>
		</g>
	</g>
</g>
</svg>