<?xml version="1.0" encoding="iso-8859-1"?>
<!-- Uploaded to: SVG Repo, www.svgrepo.com, Generator: SVG Repo Mixer Tools -->
<svg version="1.1" id="Layer_1" xmlns="http://www.w3.org/2000/svg" xmlns:xlink="http://www.w3.org/1999/xlink" 
	 viewBox="0 0 511.993 511.993" xml:space="preserve">
<rect x="61.962" y="330.035" transform="matrix(-0.7071 -0.7071 0.7071 -0.7071 -157.1884 789.1766)" style="fill:#56545A;" width="45.775" height="194.216"/>
<circle style="fill:#B4D8F1;" cx="290.846" cy="221.149" r="198.368"/>
<path style="fill:#98C8ED;" d="M431.107,80.884L150.574,361.419c77.467,77.467,203.068,77.467,280.535,0
	C508.575,283.952,508.575,158.352,431.107,80.884z"/>
<path style="fill:#FF4F19;" d="M290.84,312.706l88.835-88.835c18.076-18.076,18.076-47.382,0-65.457
	c-18.076-18.076-47.382-18.076-65.457,0l-23.378,23.377l-23.378-23.377c-18.076-18.076-47.382-18.076-65.457,0
	c-18.076,18.076-18.076,47.382,0,65.457L290.84,312.706z"/>
<path style="fill:#AEADB3;" d="M134.388,377.605c-86.267-86.267-86.267-226.637,0-312.904s226.637-86.267,312.904,0
	s86.267,226.637,0,312.904S220.656,463.872,134.388,377.605z M414.924,97.07c-68.42-68.419-179.746-68.419-248.166,0
	c-68.419,68.419-68.419,179.746,0,248.166c68.419,68.419,179.746,68.419,248.166,0C483.342,276.816,483.342,165.488,414.924,97.07z"
	/>
<path style="fill:#AF2E08;" d="M379.677,158.413c-18.076-18.076-47.382-18.076-65.458,0L290.84,181.79v130.915l88.835-88.835
	C397.751,205.795,397.751,176.489,379.677,158.413z"/>
<path style="fill:#88888F;" d="M447.293,64.701L414.923,97.07c68.419,68.419,68.419,179.746,0,248.166
	c-68.42,68.419-179.746,68.419-248.166,0l-32.369,32.369c86.267,86.267,226.637,86.267,312.904,0S533.56,150.968,447.293,64.701z"/>
</svg>