<?xml version="1.0" encoding="iso-8859-1"?>
<!-- Uploaded to: SVG Repo, www.svgrepo.com, Generator: SVG Repo Mixer Tools -->
<svg version="1.1" id="Layer_1" xmlns="http://www.w3.org/2000/svg" xmlns:xlink="http://www.w3.org/1999/xlink" 
	 viewBox="0 0 505 505" xml:space="preserve">
<circle style="fill:#FD8469;" cx="252.5" cy="252.5" r="252.5"/>
<rect x="197.974" y="262.101" transform="matrix(-0.7071 -0.7071 0.7071 -0.7071 162.2495 647.007)" style="fill:#ACB3BA;" width="34.3" height="55.599"/>
<circle style="fill:#FFFFFF;" cx="313" cy="192" r="122.2"/>
<circle style="fill:#54C0EB;" cx="313" cy="192" r="93.9"/>
<ellipse style="fill:#FFFFFF;" cx="354.5" cy="136.3" rx="21.7" ry="12.7"/>
<path style="fill:#E6E9EE;" d="M230.8,319.7l-45.6-45.6c-0.9-0.9-2.3-0.9-3.1,0l-99.3,99.4c-0.9,0.9-0.9,2.3,0,3.1l45.6,45.6
	c0.9,0.9,2.3,0.9,3.1,0l99.3-99.3C231.7,322,231.7,320.6,230.8,319.7z"/>
<rect x="108.585" y="313.742" transform="matrix(0.7071 -0.7071 0.7071 0.7071 -200.2729 212.882)" style="fill:#324A5E;" width="96.499" height="68.899"/>
<ellipse transform="matrix(-0.7071 -0.7071 0.7071 -0.7071 341.7009 440.1568)" style="fill:#84DBFF;" cx="262.01" cy="149.31" rx="10.8" ry="16.4"/>
</svg>