<?xml version="1.0" encoding="iso-8859-1"?>
<!-- Uploaded to: SVG Repo, www.svgrepo.com, Generator: SVG Repo Mixer Tools -->
<svg fill="#000000" height="800px" width="800px" version="1.1" id="Layer_1" xmlns="http://www.w3.org/2000/svg" xmlns:xlink="http://www.w3.org/1999/xlink" 
	 viewBox="0 0 512 512" xml:space="preserve">
<g>
	<g>
		<path d="M374.589,215.579c-16.223-38.947-54.517-64.705-97.11-64.674c-4.432,0.003-8.005,3.651-8.005,8.084V353.01
			c0,4.465,3.62,8.084,8.084,8.084h46.201c4.465,0,8.084-3.62,8.084-8.084c0-4.465-3.62-8.084-8.084-8.084h-38.117V167.441
			c34.398,3.138,64.28,26.111,75.855,59.141c1.219,3.477,4.634,5.688,8.304,5.382c1.742-0.147,3.302-0.217,4.768-0.217
			c31.567,0,57.181,25.983,56.579,57.685c-0.589,30.981-26.542,55.494-57.528,55.494h-10.481c-4.465,0-8.084,3.62-8.084,8.084
			c0,4.465,3.62,8.084,8.084,8.084h10.327c39.924,0,73.24-31.701,73.853-71.62C447.942,248.845,415.077,215.591,374.589,215.579z"/>
	</g>
</g>
<g>
	<g>
		<path d="M437.019,74.982C388.667,26.628,324.379,0,256,0S123.333,26.628,74.982,74.982C26.628,123.333,0,187.621,0,256
			s26.628,132.667,74.982,181.019C123.333,485.372,187.621,512,256,512s132.667-26.628,181.019-74.982
			C485.372,388.667,512,324.379,512,256S485.372,123.333,437.019,74.982z M256,495.832C123.756,495.832,16.168,388.244,16.168,256
			S123.756,16.168,256,16.168S495.832,123.756,495.832,256S388.244,495.832,256,495.832z"/>
	</g>
</g>
<g>
	<g>
		<path d="M245.221,161.684c-4.466,0-8.084,3.619-8.084,8.084V353.01c0,4.466,3.618,8.084,8.084,8.084
			c4.466,0,8.084-3.618,8.084-8.084V169.768C253.305,165.303,249.687,161.684,245.221,161.684z"/>
	</g>
</g>
<g>
	<g>
		<path d="M212.884,194.021c-4.466,0-8.084,3.618-8.084,8.084V353.01c0,4.466,3.619,8.084,8.084,8.084s8.084-3.618,8.084-8.084
			V202.105C220.968,197.64,217.35,194.021,212.884,194.021z"/>
	</g>
</g>
<g>
	<g>
		<path d="M180.795,204.803c-4.578-0.137-8.332,3.533-8.332,8.081v71.866c0,4.465,3.62,8.084,8.084,8.084
			c4.465,0,8.084-3.62,8.084-8.084v-71.528C188.632,208.796,185.22,204.936,180.795,204.803z"/>
	</g>
</g>
<g>
	<g>
		<path d="M180.547,316.045c-4.465,0-8.084,3.618-8.084,8.084v28.543c0,4.427,3.411,8.287,7.836,8.419
			c4.578,0.137,8.332-3.533,8.332-8.081v-28.881C188.632,319.665,185.012,316.045,180.547,316.045z"/>
	</g>
</g>
<g>
	<g>
		<path d="M148.21,215.579c-4.466,0-8.084,3.618-8.084,8.084V353.01c0,4.466,3.618,8.084,8.084,8.084
			c4.466,0,8.084-3.618,8.084-8.084V223.663C156.295,219.197,152.676,215.579,148.21,215.579z"/>
	</g>
</g>
<g>
	<g>
		<path d="M115.874,237.137c-4.466,0-8.084,3.618-8.084,8.084V353.01c0,4.466,3.618,8.084,8.084,8.084
			c4.466,0,8.084-3.618,8.084-8.084V245.221C123.958,240.755,120.339,237.137,115.874,237.137z"/>
	</g>
</g>
<g>
	<g>
		<path d="M83.537,258.695c-4.466,0-8.084,3.618-8.084,8.084v64.674c0,4.466,3.619,8.084,8.084,8.084s8.084-3.619,8.084-8.084
			v-64.674C91.621,262.313,88.003,258.695,83.537,258.695z"/>
	</g>
</g>
</svg>